<svg width="206" height="61" viewBox="0 0 206 61" fill="none" xmlns="http://www.w3.org/2000/svg">
<path d="M170.837 1.27374C173.306 7.41209 168.922 14.8122 170.837 22.2806C175.165 21.8583 179.182 16.7059 184.877 12.8828C189.47 9.79873 197.112 4.24998 201.618 5.69609C203.646 6.34665 205.814 10.8129 205.398 12.8828C204.638 16.6605 193.789 19.1527 190.277 21.1751C184.439 24.5364 180.907 27.0621 176.776 30.5729C182.509 38.7098 192.235 42.7574 204.318 44.3931C203.517 47.24 205.956 46.7701 205.398 49.3686C190.77 53.8259 175.223 47.3701 168.676 38.312C161.924 39.341 156.84 58.4862 150.316 59.8713C145.446 60.9056 142.279 57.0929 142.215 54.3434C142.138 51.069 149.301 44.0452 151.936 41.0764C156.075 36.4109 160.014 34.2072 163.276 30.0198C159.981 22.8033 155.69 11.627 158.956 1.273C161.17 -0.735945 168.488 -0.0816635 170.837 1.27374Z" fill="#FF0800"/>
<path d="M10.9882 25.045C10.9882 38.5433 30.644 36.9655 30.429 23.9394C30.3193 17.288 25.6136 13.7095 19.0886 15.0939C12.923 16.4018 10.9882 19.2665 10.9882 25.045ZM36.3694 34.4428C38.3543 34.0793 40.0008 33.3685 42.3097 33.3373C41.5123 35.6533 41.5536 38.828 40.6894 41.0771C22.0337 44.3998 -1.97692 44.7069 0.727803 22.2806C3.52259 -0.895802 47.8964 2.82542 40.6894 27.8086C40.0008 30.1967 38.2025 31.3127 36.3694 34.4421" fill="#2A2A29"/>
<path d="M120.074 34.4428C127.302 37.0755 128.241 28.9163 128.174 22.2805C119.883 20.2463 115.989 29.0286 120.074 34.4428ZM128.714 7.354H138.975C137.851 18.1809 137.148 29.4397 137.354 41.6287C135.117 41.9283 126.671 44.1982 127.634 39.4175C124.906 41.2607 123.024 42.6926 119.534 42.7343C102.019 42.9447 106.349 8.8596 128.175 15.6463C129.421 13.9741 128.365 9.94436 128.715 7.354" fill="#2A2A29"/>
<path d="M103.873 42.1821H94.1521C93.8529 38.0066 94.5015 34.7999 94.6925 31.1255C93.1055 31.1731 87.5762 31.9381 87.1317 34.9954C87.6271 37.8289 90.1488 36.8021 92.5317 36.6542C92.1984 38.7085 91.2455 40.1285 90.9121 42.1821C82.8872 44.2594 77.387 40.4036 77.411 34.9954C77.4538 25.4964 89.1036 27.7872 94.6917 23.3864C92.6283 18.5462 84.5773 22.6577 81.1913 23.3864C80.887 20.8637 82.1486 19.9432 81.731 17.3053C88.2662 16.0242 100.222 12.9082 103.872 18.4109C107.743 24.2473 101.967 33.1255 103.872 42.1821" fill="#2A2A29"/>
<path d="M46.6297 16.1997H56.8901C56.5379 21.6414 55.0809 27.9701 56.3498 33.3374C65.0174 37.6245 64.6593 24.5351 64.4501 16.1997H74.7105C73.5906 24.2667 73.7707 33.6646 73.0902 42.1821H63.9098V39.4178C60.5005 42.4632 50.1537 45.0268 46.629 39.4178C42.9532 33.5679 48.2864 24.7351 46.629 16.199" fill="#2A2A29"/>
<path d="M140.594 25.0444H154.095C153.64 27.159 153.389 29.4824 153.555 32.2311H140.054C140.193 29.7939 140.917 27.9545 140.594 25.0444Z" fill="#2A2A29"/>
</svg>
